<?xml version="1.0" standalone="no"?>
<!DOCTYPE svg PUBLIC "-//W3C//DTD SVG 20010904//EN"
 "http://www.w3.org/TR/2001/REC-SVG-20010904/DTD/svg10.dtd">
<svg version="1.0" xmlns="http://www.w3.org/2000/svg"
 width="2048.000000pt" height="2048.000000pt" viewBox="0 0 2048.000000 2048.000000"
 preserveAspectRatio="xMidYMid meet">

<g transform="translate(0.000000,2048.000000) scale(0.100000,-0.100000)"
fill="#000000" stroke="none">
<path d="M10646 20207 c-48 -73 -67 -197 -112 -729 -19 -233 -50 -578 -69
-768 -51 -508 -63 -646 -75 -845 -7 -99 -16 -186 -22 -193 -9 -10 -16 -9 -37
5 -52 35 -135 83 -142 83 -9 0 -130 -187 -444 -688 l-258 -412 -501 -638
c-812 -1032 -1399 -1753 -2005 -2462 -336 -393 -842 -970 -850 -970 -5 0 -41
48 -82 108 -265 386 -427 606 -700 947 -101 127 -263 338 -359 470 -394 543
-534 714 -815 1003 -128 132 -173 167 -204 157 -38 -12 -123 -247 -211 -590
-135 -524 -143 -810 -33 -1165 71 -232 151 -407 471 -1035 343 -674 459 -884
763 -1380 102 -168 164 -254 306 -430 548 -676 1237 -1526 1498 -1850 430
-532 664 -815 1059 -1280 668 -786 1023 -1247 1472 -1911 192 -284 290 -419
382 -527 136 -159 279 -262 382 -274 48 -6 51 -4 88 33 44 45 74 115 105 252
l21 92 -23 233 c-24 253 -29 503 -11 645 6 48 25 160 41 249 48 264 59 360 59
523 0 225 -45 587 -85 688 -11 25 -96 118 -271 292 -293 291 -441 456 -744
829 -772 951 -1688 2007 -1982 2286 -128 122 -137 176 -49 295 58 79 235 284
551 640 894 1006 1473 1709 2330 2829 36 47 70 84 75 83 10 -2 13 -74 34 -952
14 -556 14 -1337 0 -1511 -12 -164 -37 -291 -84 -428 -36 -109 -44 -176 -22
-202 62 -76 244 -108 665 -116 299 -6 391 0 494 33 100 32 122 75 87 170 -84
228 -100 343 -100 729 0 326 16 672 57 1190 46 591 72 763 120 782 48 18 133
-82 744 -887 627 -825 869 -1133 1414 -1805 506 -622 569 -705 617 -811 51
-112 34 -166 -120 -379 -144 -200 -871 -1159 -970 -1279 -307 -374 -596 -643
-1191 -1106 -414 -323 -477 -378 -535 -469 -32 -52 -32 -90 -1 -308 53 -359
60 -449 60 -703 0 -260 -9 -361 -64 -731 l-30 -196 60 -349 c51 -300 118 -648
136 -706 17 -56 112 7 354 235 686 644 1480 1570 2516 2932 725 952 1017 1390
1711 2560 353 595 1187 2143 1603 2975 155 309 161 324 147 365 -19 56 -359
586 -564 879 -279 397 -343 446 -493 371 -227 -114 -611 -576 -1193 -1435
-238 -353 -430 -687 -517 -902 -13 -32 -28 -58 -34 -57 -6 0 -345 447 -753
992 -800 1069 -1151 1529 -1711 2244 -573 734 -745 965 -938 1263 -401 618
-566 1056 -718 1910 -25 140 -64 357 -86 482 -66 370 -110 551 -150 616 -23
38 -44 41 -64 9z"/>
<path d="M10809 8537 c-42 -28 -91 -124 -119 -233 -51 -199 -101 -646 -160
-1444 -86 -1177 -117 -2010 -101 -2718 l9 -413 -80 -147 c-157 -286 -291 -496
-568 -892 -450 -643 -530 -822 -530 -1198 0 -116 19 -383 29 -400 5 -9 33 21
87 90 43 57 185 227 314 378 333 389 515 621 755 958 32 45 62 79 65 75 4 -5
17 -451 29 -993 l22 -985 25 -54 c59 -131 205 -311 252 -311 11 0 62 -20 115
-45 119 -55 142 -57 153 -13 12 48 6 7301 -6 7608 -18 461 -55 671 -132 735
-40 34 -111 35 -159 2z"/>
</g>
</svg>
